<svg width="668" height="606" viewBox="0 0 668 606" fill="none" xmlns="http://www.w3.org/2000/svg">
<path d="M434.99 66.8475C478.783 109.747 509.17 158.902 554.751 208.058C599.437 258.107 659.318 309.05 665.574 363.568C670.936 417.192 622.674 475.285 576.2 521.759C528.832 568.234 483.252 603.089 433.202 603.983C383.153 604.877 329.529 570.915 285.736 553.934C241.943 536.953 207.087 537.847 182.063 522.653C156.144 508.353 139.163 478.86 105.201 449.367C72.133 418.98 22.9775 389.486 6.89022 351.056C-8.30329 312.625 10.4652 265.257 45.3209 237.551C80.1766 210.739 131.12 204.483 172.231 159.796C213.343 115.109 244.624 31.9918 289.311 9.64838C333.104 -13.5888 391.197 23.0544 434.99 66.8475Z" stroke="url(#paint0_linear_0_1)" stroke-width="3"/>
<path d="M429.275 84.3861C470.932 124.607 499.836 170.693 543.193 216.78C585.7 263.704 642.66 311.466 648.611 362.58C653.711 412.856 607.804 467.322 563.597 510.894C518.539 554.467 475.182 587.146 427.575 587.984C379.967 588.822 328.959 556.981 287.302 541.06C245.645 525.139 212.49 525.977 188.686 511.732C164.032 498.325 147.879 470.673 115.574 443.022C84.1186 414.532 37.361 386.88 22.0585 350.849C7.60619 314.818 25.4591 270.407 58.6145 244.431C91.7699 219.293 140.228 213.428 179.334 171.531C218.441 129.635 248.195 51.7067 290.702 30.7584C332.359 8.9721 387.618 43.3274 429.275 84.3861Z" stroke="url(#paint1_linear_0_1)" stroke-width="3"/>
<defs>
<linearGradient id="paint0_linear_0_1" x1="1.57227" y1="604" x2="600.174" y2="-57.1435" gradientUnits="userSpaceOnUse">
<stop stop-color="#F87537"/>
<stop offset="1" stop-color="#FBA81F"/>
</linearGradient>
<linearGradient id="paint1_linear_0_1" x1="17" y1="588" x2="577.365" y2="-39.9269" gradientUnits="userSpaceOnUse">
<stop stop-color="#F87537"/>
<stop offset="1" stop-color="#FBA81F"/>
</linearGradient>
</defs>
</svg>

